<svg width="168" height="54" viewBox="0 0 168 54" fill="none" xmlns="http://www.w3.org/2000/svg">
<g clip-path="url(#clip0_245_228)">
<path d="M37.3016 23.2246L20.2776 0C12.5053 6.6021 14.8108 14.536 16.9351 17.6778L25.893 29.989C28.8164 36.519 24.0211 39.805 21.258 40.6317C26.9625 41.7862 29.0422 48.3885 29.3691 51.545C43.5231 43.8607 40.5549 29.463 37.3016 23.2246Z" fill="url(#paint0_linear_245_228)"/>
<path d="M1.03007 39.9103C-2.46388 30.0973 3.76345 20.3385 7.31386 16.6857C9.05194 17.6778 11.2356 20.0679 12.9737 23.4952C14.3641 26.237 13.761 30.861 13.2857 32.8303C13.25 40.0095 18.8267 40.9625 21.6195 40.5415C27.7516 41.8405 29.5025 48.268 29.6362 51.4098C25.1797 54.4765 18.3216 54.0705 15.4248 53.394C12.0824 52.9883 4.52404 49.7233 1.03007 39.9103Z" fill="url(#paint1_linear_245_228)"/>
<path d="M52.0812 23.45H55.123C57.6489 23.45 57.9336 23.828 57.9336 27.23C57.9336 30.632 57.6489 31.01 55.123 31.01H52.0812L52.0634 27.23L52.0812 23.45ZM48.3457 34.25H55.5144C60.584 34.25 61.847 32.846 61.847 27.23C61.847 21.614 60.584 20.21 55.5144 20.21H48.3457V34.25ZM66.7185 34.25H70.454V23.45H74.741V20.21H62.4671V23.45H66.7185V34.25ZM89.5087 28.292H85.5953C85.6308 31.1 85.3106 31.406 82.4645 31.406C79.6006 31.406 79.2804 30.992 79.2804 27.23C79.2804 23.468 79.6006 23.054 82.4645 23.054C85.3106 23.054 85.6308 23.36 85.5953 26.132H89.5087C89.5442 21.218 88.139 19.994 82.4645 19.994C76.7901 19.994 75.367 21.434 75.367 27.23C75.367 33.026 76.7901 34.466 82.4645 34.466C88.139 34.466 89.5442 33.224 89.5087 28.292Z" fill="#FE532E"/>
<path d="M103.247 26.726V29.606H106.093C106.022 30.866 105.061 31.406 102.927 31.406C100.134 31.406 99.8314 30.992 99.8314 27.23C99.8314 23.468 100.134 23.054 102.927 23.054C105.719 23.054 106.022 23.27 105.986 25.214H109.9C109.935 21.038 108.548 19.994 102.927 19.994C97.3232 19.994 95.918 21.434 95.918 27.23C95.918 33.026 97.3232 34.466 102.927 34.466C104.937 34.466 106.075 33.71 106.52 32V34.25H109.9V26.726H103.247ZM119.442 20.21H111.508V34.25H115.244V29.3H118.019C119.958 29.3 120.153 29.462 120.153 31.01V34.25H124.067V30.794C124.067 28.994 123.124 28.166 121.274 27.968C123.213 27.698 124.067 26.6 124.067 24.278C124.067 21.02 123.142 20.21 119.442 20.21ZM115.244 26.42V23.27H118.481C120.153 23.27 120.331 23.432 120.331 24.818C120.331 26.258 120.153 26.42 118.481 26.42H115.244ZM132.515 23.054C135.485 23.054 135.805 23.468 135.805 27.23C135.805 30.992 135.485 31.406 132.515 31.406C129.544 31.406 129.224 30.992 129.224 27.23C129.224 23.468 129.544 23.054 132.515 23.054ZM125.31 27.23C125.31 33.026 126.751 34.466 132.515 34.466C138.278 34.466 139.719 33.026 139.719 27.23C139.719 21.434 138.278 19.994 132.515 19.994C126.751 19.994 125.31 21.434 125.31 27.23ZM153.275 28.49V20.21H149.54V28.49C149.54 31.118 149.291 31.406 147.121 31.406C144.951 31.406 144.701 31.118 144.701 28.49V20.21H140.966V28.49C140.966 33.278 142.193 34.466 147.121 34.466C152.048 34.466 153.275 33.278 153.275 28.49ZM154.885 20.21V34.25H158.62V29.66H163.138C166.589 29.48 167.443 28.526 167.443 24.89C167.443 21.146 166.518 20.21 162.818 20.21H154.885ZM158.62 26.42V23.27H161.858C163.53 23.27 163.708 23.432 163.708 24.908C163.708 26.276 163.53 26.42 161.858 26.42H158.62Z" fill="#F1951A"/>
</g>
<defs>
<linearGradient id="paint0_linear_245_228" x1="27.4437" y1="0" x2="27.4437" y2="51.545" gradientUnits="userSpaceOnUse">
<stop stop-color="#FE552C"/>
<stop offset="1" stop-color="#F1951A"/>
</linearGradient>
<linearGradient id="paint1_linear_245_228" x1="14.8181" y1="16.6857" x2="14.8181" y2="53.8723" gradientUnits="userSpaceOnUse">
<stop stop-color="#F4891E"/>
<stop offset="1" stop-color="#FE592B"/>
</linearGradient>
<clipPath id="clip0_245_228">
<rect width="168" height="54" fill="white"/>
</clipPath>
</defs>
</svg>
